<svg xmlns="http://www.w3.org/2000/svg" version="1.1" xmlns:xlink="http://www.w3.org/1999/xlink" xmlns:svgjs="http://svgjs.dev/svgjs" width="1500" height="238" viewBox="0 0 1500 238"><g transform="matrix(1,0,0,1,-0.9090909090909918,0.8935701211553351)"><svg viewBox="0 0 396 63" data-background-color="#000000" preserveAspectRatio="xMidYMid meet" height="238" width="1500" xmlns="http://www.w3.org/2000/svg" xmlns:xlink="http://www.w3.org/1999/xlink"><g id="tight-bounds" transform="matrix(1,0,0,1,0.2400000000000091,-0.2365332673646492)"><svg viewBox="0 0 395.52 63.473066534729305" height="63.473066534729305" width="395.52"><g><svg viewBox="0 0 487.05382455684935 78.16241861875828" height="63.473066534729305" width="395.52"><g transform="matrix(1,0,0,1,91.53382455684938,10.802476089857333)"><svg viewBox="0 0 395.52 56.557466439043615" height="56.557466439043615" width="395.52"><g id="textblocktransform"><svg viewBox="0 0 395.52 56.557466439043615" height="56.557466439043615" width="395.52" id="textblock"><g><svg viewBox="0 0 395.52 56.557466439043615" height="56.557466439043615" width="395.52"><g transform="matrix(1,0,0,1,0,0)"><svg width="395.52" viewBox="1.55 -34.25 242.85530288771636 34.73" height="56.557466439043615" data-palette-color="#f6065a"><g transform="matrix(1,0,0,1,0,0)"><g><svg width="11.525522887716363" viewBox="1.78 -36.36 74.21 36.36" height="5.646954754555769" data-palette-color="#f6065a" id="scriptelement" x="230.49276144385817" y="-10.973257377277886"><path d="M12.91-30.02L1.78-30.02 1.78-36.36 31.64-36.36 31.64-30.02 20.51-30.02 20.51 0 12.91 0 12.91-30.02ZM36.57 0L36.57-36.36 46.06-36.36 56.07-11.93 56.5-11.93 66.51-36.36 75.99-36.36 75.99 0 68.53 0 68.53-23.67 68.23-23.67 58.82-0.18 53.74-0.18 44.33-23.76 44.03-23.76 44.03 0 36.57 0Z" opacity="1" transform="matrix(1,0,0,1,0,0)" fill="#f6065a" class="undefined-123" data-fill-palette-color="primary" id="yy-123"></path></svg></g></g><path d="M228.106-8.15C228.106-12.651 231.755-16.3 236.256-16.3 240.757-16.3 244.405-12.651 244.405-8.15 244.405-3.649 240.757 0 236.256 0 231.755 0 228.106-3.649 228.106-8.15ZM236.256-0.4C240.536-0.4 244.005-3.87 244.005-8.15 244.005-12.43 240.536-15.9 236.256-15.9 231.975-15.9 228.506-12.43 228.506-8.15 228.506-3.87 231.975-0.4 236.256-0.4Z" fill="#f6065a" id="scriptcircle" data-fill-palette-color="primary"></path><path d="M21.65 0.45L21.65 0.45 9.7-25.8 10.3-25.8 8.65-9.35Q8.4-6.55 8.6-5.08 8.8-3.6 9.6-3 10.4-2.4 11.85-2.25L11.85-2.25Q12-1.7 12.08-1 12.15-0.3 12.15 0.15L12.15 0.15Q11 0.05 9.47 0.03 7.95 0 6.75 0L6.75 0Q6 0 5.03 0.03 4.05 0.05 3.13 0.08 2.2 0.1 1.55 0.15L1.55 0.15Q1.55-0.3 1.6-1 1.65-1.7 1.85-2.25L1.85-2.25Q3.15-2.4 3.95-2.98 4.75-3.55 5.2-5.08 5.65-6.6 5.9-9.7L5.9-9.7 7.45-26.6Q7.6-28.5 7.35-29.58 7.1-30.65 6.33-31.1 5.55-31.55 4.15-31.55L4.15-31.55Q3.95-32.1 3.9-32.75 3.85-33.4 3.85-33.95L3.85-33.95Q4.4-33.9 5.15-33.88 5.9-33.85 6.7-33.83 7.5-33.8 8.15-33.8L8.15-33.8Q8.85-33.8 9.6-33.83 10.35-33.85 11.08-33.88 11.8-33.9 12.4-33.95L12.4-33.95 25.05-5.8 23.85-5.8 34.8-33.95Q35.45-33.9 36.23-33.88 37-33.85 37.77-33.83 38.55-33.8 39.2-33.8L39.2-33.8Q39.9-33.8 40.63-33.83 41.35-33.85 42.08-33.88 42.8-33.9 43.45-33.95L43.45-33.95Q43.45-33.35 43.4-32.73 43.35-32.1 43.2-31.55L43.2-31.55Q41.35-31.55 40.43-30.48 39.5-29.4 39.85-26.35L39.85-26.35 41.55-8.75Q41.85-6.2 42.23-4.85 42.6-3.5 43.33-2.98 44.05-2.45 45.25-2.3L45.25-2.3Q45.4-1.75 45.45-1.1 45.5-0.45 45.5 0.15L45.5 0.15Q44.95 0.1 44.13 0.08 43.3 0.05 42.35 0.03 41.4 0 40.53 0 39.65 0 38.95 0L38.95 0Q38 0 36.83 0.03 35.65 0.05 34.52 0.08 33.4 0.1 32.6 0.15L32.6 0.15Q32.6-0.4 32.68-1.05 32.75-1.7 32.9-2.25L32.9-2.25Q34.5-2.45 35.23-2.93 35.95-3.4 36.08-4.63 36.2-5.85 35.95-8.1L35.95-8.1 34.05-25.95 34.7-25.95 24 0.1Q23.5 0.3 22.9 0.38 22.3 0.45 21.65 0.45ZM75.75-25.2L75.75-13.5Q75.75-9.2 75.2-6.65 74.65-4.1 72.9-2.35L72.9-2.35Q71.45-0.95 69.35-0.25 67.25 0.45 64.65 0.45L64.65 0.45Q59.95 0.45 57.25-0.9 54.55-2.25 53.4-4.98 52.25-7.7 52.25-11.6L52.25-11.6 52.25-26.95Q52.25-28.85 52.02-29.78 51.8-30.7 51.15-31.03 50.5-31.35 49.25-31.55L49.25-31.55Q49.1-32.1 49.05-32.73 49-33.35 49-33.95L49-33.95Q50-33.9 51.65-33.85 53.3-33.8 54.95-33.8L54.95-33.8Q55.7-33.8 56.62-33.8 57.55-33.8 58.42-33.83 59.3-33.85 60.1-33.88 60.9-33.9 61.45-33.95L61.45-33.95Q61.45-33.35 61.4-32.73 61.35-32.1 61.2-31.55L61.2-31.55Q59.75-31.4 59.02-31.05 58.3-30.7 58.05-29.8 57.8-28.9 57.8-26.95L57.8-26.95 57.8-12.35Q57.8-9.5 58.52-7.23 59.25-4.95 61-3.68 62.75-2.4 65.85-2.4L65.85-2.4Q67.05-2.4 68.5-2.85 69.95-3.3 70.95-4.35L70.95-4.35Q71.7-5.15 72.12-6.2 72.55-7.25 72.77-8.93 73-10.6 73-13.25L73-13.25 73-25.1Q73-27.55 72.75-28.88 72.5-30.2 71.77-30.8 71.05-31.4 69.6-31.55L69.6-31.55Q69.45-32.3 69.37-32.85 69.3-33.4 69.3-33.95L69.3-33.95Q69.95-33.9 70.77-33.88 71.6-33.85 72.5-33.83 73.4-33.8 74.15-33.8L74.15-33.8Q75.35-33.8 76.7-33.85 78.05-33.9 79-33.95L79-33.95Q79-33.5 78.95-32.95 78.9-32.4 78.75-31.55L78.75-31.55Q77.55-31.4 76.9-30.83 76.25-30.25 76-28.93 75.75-27.6 75.75-25.2L75.75-25.2ZM94.5 0.45L94.5 0.45Q91.4 0.45 88.95-0.4 86.5-1.25 84.05-2.7L84.05-2.7Q84.35-4.6 84.45-6.55 84.55-8.5 84.55-10L84.55-10Q85.2-10.2 86.1-10.28 87-10.35 87.75-10.35L87.75-10.35Q87.95-7.7 88.67-5.9 89.4-4.1 90.97-3.15 92.55-2.2 95.1-2.2L95.1-2.2Q98.4-2.2 99.82-3.65 101.25-5.1 101.25-7.15L101.25-7.15Q101.25-9.2 100.05-10.55 98.85-11.9 96.95-12.88 95.05-13.85 92.95-14.8 90.85-15.75 88.95-17.03 87.05-18.3 85.85-20.2 84.65-22.1 84.65-25.05L84.65-25.05Q84.65-28 85.95-30.05 87.25-32.1 89.57-33.18 91.9-34.25 95.05-34.25L95.05-34.25Q96.8-34.25 98.45-33.95 100.1-33.65 101.47-33.15 102.85-32.65 103.7-32.05L103.7-32.05Q103.7-30.5 103.75-28.55 103.8-26.6 104-25.3L104-25.3Q103.4-25.05 102.47-24.9 101.55-24.75 100.75-24.75L100.75-24.75Q100.25-27.6 99.45-29.1 98.65-30.6 97.52-31.18 96.4-31.75 94.9-31.75L94.9-31.75Q92.4-31.75 90.97-30.55 89.55-29.35 89.55-27.15L89.55-27.15Q89.55-25.05 90.75-23.65 91.95-22.25 93.85-21.25 95.75-20.25 97.87-19.25 100-18.25 101.92-17 103.85-15.75 105.05-13.9 106.25-12.05 106.25-9.25L106.25-9.25Q106.25-6.65 105-4.42 103.75-2.2 101.17-0.88 98.6 0.45 94.5 0.45ZM114.94-6.8L114.94-27Q114.94-28.8 114.64-29.73 114.34-30.65 113.62-31.05 112.89-31.45 111.54-31.55L111.54-31.55Q111.34-32 111.29-32.63 111.24-33.25 111.24-33.95L111.24-33.95Q112.19-33.9 113.27-33.88 114.34-33.85 115.52-33.83 116.69-33.8 117.74-33.8L117.74-33.8Q118.84-33.8 119.94-33.83 121.04-33.85 122.09-33.88 123.14-33.9 124.14-33.95L124.14-33.95Q124.14-33.25 124.09-32.63 124.04-32 123.89-31.55L123.89-31.55Q122.59-31.45 121.82-31.05 121.04-30.65 120.74-29.73 120.44-28.8 120.44-27L120.44-27 120.44-6.8Q120.44-5.05 120.74-4.1 121.04-3.15 121.82-2.75 122.59-2.35 123.89-2.25L123.89-2.25Q124.04-1.85 124.09-1.23 124.14-0.6 124.14 0.15L124.14 0.15Q122.74 0.05 121.09 0.03 119.44 0 117.84 0L117.84 0Q116.19 0 114.39 0.03 112.59 0.05 111.24 0.15L111.24 0.15Q111.24-0.6 111.32-1.23 111.39-1.85 111.54-2.25L111.54-2.25Q112.89-2.35 113.62-2.75 114.34-3.15 114.64-4.1 114.94-5.05 114.94-6.8L114.94-6.8ZM144.59 0.45L144.59 0.45Q139.84 0.45 136.24-1.78 132.64-4 130.56-7.98 128.49-11.95 128.49-17.15L128.49-17.15Q128.49-21.45 129.89-24.65 131.29-27.85 133.67-30 136.04-32.15 139.04-33.2 142.04-34.25 145.29-34.25L145.29-34.25Q148.34-34.25 150.99-33.6 153.64-32.95 156.34-31.65L156.34-31.65Q155.99-29.9 155.89-27.93 155.79-25.95 155.79-23.9L155.79-23.9Q155.14-23.65 154.39-23.53 153.64-23.4 152.79-23.4L152.79-23.4Q152.69-26.8 151.79-28.65 150.89-30.5 149.31-31.2 147.74-31.9 145.64-31.9L145.64-31.9Q142.69-31.9 140.56-30.78 138.44-29.65 137.12-27.78 135.79-25.9 135.17-23.5 134.54-21.1 134.54-18.5L134.54-18.5Q134.54-14.1 135.97-10.55 137.39-7 140.14-4.93 142.89-2.85 146.84-2.85L146.84-2.85Q149.14-2.85 151.54-3.6 153.94-4.35 155.99-5.65L155.99-5.65Q156.34-5.4 156.62-4.88 156.89-4.35 156.99-3.95L156.99-3.95Q154.19-1.75 151.31-0.65 148.44 0.45 144.59 0.45ZM165.68 0.48L165.68 0.48Q163.88 0.48 162.86-0.54 161.84-1.56 161.84-3.12L161.84-3.12Q161.84-4.74 163.01-5.85 164.18-6.96 165.92-6.96L165.92-6.96Q167.66-6.96 168.65-5.79 169.64-4.62 169.64-3.42L169.64-3.42Q169.64-1.5 168.47-0.51 167.3 0.48 165.68 0.48ZM178.04-6.8L178.04-27Q178.04-28.8 177.74-29.73 177.44-30.65 176.71-31.05 175.99-31.45 174.64-31.55L174.64-31.55Q174.44-32 174.39-32.63 174.34-33.25 174.34-33.95L174.34-33.95Q175.29-33.9 176.36-33.88 177.44-33.85 178.61-33.83 179.79-33.8 180.84-33.8L180.84-33.8Q181.94-33.8 183.04-33.83 184.14-33.85 185.19-33.88 186.24-33.9 187.24-33.95L187.24-33.95Q187.24-33.25 187.19-32.63 187.14-32 186.99-31.55L186.99-31.55Q185.69-31.45 184.91-31.05 184.14-30.65 183.84-29.73 183.54-28.8 183.54-27L183.54-27 183.54-6.8Q183.54-5.05 183.84-4.1 184.14-3.15 184.91-2.75 185.69-2.35 186.99-2.25L186.99-2.25Q187.14-1.85 187.19-1.23 187.24-0.6 187.24 0.15L187.24 0.15Q185.84 0.05 184.19 0.03 182.54 0 180.94 0L180.94 0Q179.29 0 177.49 0.03 175.69 0.05 174.34 0.15L174.34 0.15Q174.34-0.6 174.41-1.23 174.49-1.85 174.64-2.25L174.64-2.25Q175.99-2.35 176.71-2.75 177.44-3.15 177.74-4.1 178.04-5.05 178.04-6.8L178.04-6.8ZM219.28-8.5L218.93 0.3 195.83-30Q195.18-30.85 194.53-31.13 193.88-31.4 192.58-31.55L192.58-31.55Q192.43-32.1 192.38-32.77 192.33-33.45 192.33-33.95L192.33-33.95Q192.83-33.9 193.56-33.88 194.28-33.85 195.06-33.83 195.83-33.8 196.48-33.8L196.48-33.8Q197.48-33.8 198.48-33.85 199.48-33.9 200.18-33.95L200.18-33.95 219.28-8.5ZM192.33 0.15L192.33 0.15Q192.33-0.6 192.38-1.18 192.43-1.75 192.58-2.25L192.58-2.25Q193.98-2.3 194.73-2.95 195.48-3.6 195.81-5.2 196.13-6.8 196.13-9.6L196.13-9.6 196.13-30.55 198.88-30.5 198.88-9.6Q198.88-6.8 199.18-5.2 199.48-3.6 200.23-2.95 200.98-2.3 202.38-2.25L202.38-2.25Q202.58-1.75 202.63-1.18 202.68-0.6 202.68 0.15L202.68 0.15Q201.93 0.1 201.01 0.08 200.08 0.05 199.18 0.03 198.28 0 197.53 0L197.53 0Q196.83 0 195.81 0.03 194.78 0.05 193.86 0.08 192.93 0.1 192.33 0.15ZM218.93 0.3L218.93 0.3 218.73-5.35 218.73-24.4Q218.73-27.2 218.43-28.7 218.13-30.2 217.36-30.85 216.58-31.5 215.18-31.55L215.18-31.55Q215.03-32.4 214.96-32.93 214.88-33.45 214.88-33.95L214.88-33.95Q215.63-33.9 216.51-33.88 217.38-33.85 218.28-33.83 219.18-33.8 219.88-33.8L219.88-33.8Q220.98-33.8 222.36-33.85 223.73-33.9 224.73-33.95L224.73-33.95Q224.73-33.35 224.68-32.75 224.63-32.15 224.48-31.55L224.48-31.55Q223.33-31.5 222.68-30.88 222.03-30.25 221.76-28.73 221.48-27.2 221.48-24.4L221.48-24.4 221.48 0Q220.98 0.15 220.31 0.23 219.63 0.3 218.93 0.3Z" opacity="1" transform="matrix(1,0,0,1,0,0)" fill="#f6065a" class="wordmark-text-0" data-fill-palette-color="primary" id="text-0"></path></svg></g></svg></g></svg></g></svg></g><g><svg viewBox="0 0 78.18196410978572 78.16241861875828" height="78.16241861875828" width="78.18196410978572"><g><svg xmlns="http://www.w3.org/2000/svg" xmlns:xlink="http://www.w3.org/1999/xlink" version="1.1" x="0" y="0" viewBox="14 14.018000000000004 72 71.982" enable-background="new 0 0 100 100" xml:space="preserve" height="78.16241861875828" width="78.18196410978572" class="icon-icon-0" data-fill-palette-color="accent" id="icon-0"><g fill="#ffffff" data-fill-palette-color="accent"><path d="M75.247 41.843c-0.715-6.531-5.452-13.034-13-17.843-7.463-4.753-7.605-9.219-7.605-9.405v-0.577h-5.998v50.392c-2.51-1.511-5.615-2.416-8.995-2.416-8.28 0-14.991 5.369-14.991 11.995 0 6.623 6.711 11.994 14.991 11.994 8.278 0 14.993-5.371 14.993-11.994V30.72c1.197 0.938 2.625 1.753 4.386 2.337 14.478 4.824 13.587 20.052 10.728 22.915C73.908 51.82 75.808 46.934 75.247 41.843z" fill="#ffffff" data-fill-palette-color="accent"></path></g><g display="none" fill="#ffffff" data-fill-palette-color="accent"><path display="inline" d="M76.637 18.634c0-2.52-2.053-4.569-4.57-4.569H27.941c-2.521 0-4.574 2.05-4.574 4.569l-3.891 28.78h0.01V75.43h2.506v10.506h9.336V75.43h37.346v10.506h9.336V75.43h2.502V47.414h0.012L76.637 18.634zM41.25 17.337h17.508v5.123H41.25V17.337zM31.143 67.257c-3.217 0-5.832-2.611-5.832-5.833 0-3.226 2.615-5.835 5.832-5.835 3.23 0 5.84 2.609 5.84 5.835C36.982 64.646 34.373 67.257 31.143 67.257zM68.855 67.257c-3.223 0-5.832-2.611-5.832-5.833 0-3.226 2.609-5.835 5.832-5.835s5.836 2.609 5.836 5.835C74.691 64.646 72.078 67.257 68.855 67.257zM25.311 46.155l3.893-20.424h41.6l3.889 20.424H25.311z" fill="#ffffff" data-fill-palette-color="accent"></path></g><g display="none" fill="#ffffff" data-fill-palette-color="accent"><g display="inline" fill="#ffffff" data-fill-palette-color="accent"><circle cx="24.512" cy="75.486" r="9.0" fill="#ffffff" data-fill-palette-color="accent"></circle><path d="M15.519 39.506v11.992c18.186 0 32.983 14.797 32.983 32.984h11.994C60.496 59.682 40.314 39.506 15.519 39.506z" fill="#ffffff" data-fill-palette-color="accent"></path><path d="M15.519 15.518v11.994c31.413 0 56.968 25.556 56.968 56.971h11.995C84.481 46.456 53.546 15.518 15.519 15.518z" fill="#ffffff" data-fill-palette-color="accent"></path></g></g><g display="none" fill="#ffffff" data-fill-palette-color="accent"><polygon display="inline" points="54.914,36.953 63.789,45.894 78.459,31.087 86,38.856 85.992,15 78.537,15 62.141,15    69.602,22.337  " fill="#ffffff" data-fill-palette-color="accent"></polygon><polygon display="inline" points="64,73 27,73 27,37 45.734,37 60.254,22 14,22 14,86 77,86 77,40.089 64,55.39  " fill="#ffffff" data-fill-palette-color="accent"></polygon></g></svg></g></svg></g></svg></g><defs></defs></svg><rect width="395.52" height="63.473066534729305" fill="none" stroke="none" visibility="hidden"></rect></g></svg></g></svg>